# xmcd
#
# Track frame offsets:
#   150
#   10888
#   17765
#   22089
#   35493
#   58148
#   87561
#   102613
#   120574
#   133633
#   158843
#   214479
#
# Disc length: 3184 seconds
#
# Revision: 0
# Processed by: cddbd v1.5.2PL0 Copyright (c) Steve Scherf et al.
# Submitted via: GXTranscoder 2.0.1939
#
DISCID=aa0c6e0c
DTITLE=Friedrich Dürrenmatt - Der Auftrag CD 3
DYEAR=1900
DGENRE=Children's Music
TTITLE0=27
TTITLE1=28
TTITLE2=29
TTITLE3=30
TTITLE4=31
TTITLE5=32
TTITLE6=33
TTITLE7=33
TTITLE8=34
TTITLE9=35
TTITLE10=36
TTITLE11=37
EXTD=
EXTT0=
EXTT1=
EXTT2=
EXTT3=
EXTT4=
EXTT5=
EXTT6=
EXTT7=
EXTT8=
EXTT9=
EXTT10=
EXTT11=
PLAYORDER=
